<svg width="200" height="200" viewBox="0 0 200 200" fill="none" xmlns="http://www.w3.org/2000/svg">
<g clip-path="url(#clip0_362_2258)">
<rect width="199.44" height="199.44" rx="29" fill="url(#paint0_linear_362_2258)"/>
<rect x="0.440186" y="0.440231" width="199" height="199" fill="url(#paint1_linear_362_2258)"/>
<path d="M99.7646 165.346C91.0267 165.346 82.9685 163.825 75.5899 160.783C68.276 157.741 62.3213 153.113 57.7258 146.899C53.3871 140.949 50.9774 133.455 50.4968 124.419C50.4617 123.759 50.9922 123.21 51.653 123.21H71.7999C72.4453 123.21 72.9656 123.734 72.9923 124.379C73.1715 128.707 74.361 132.298 76.5607 135.152C78.9555 138.258 82.1594 140.589 86.1724 142.142C90.25 143.631 94.716 144.375 99.5704 144.375C104.231 144.375 108.373 143.76 111.998 142.53C115.687 141.301 118.567 139.553 120.638 137.288C122.774 134.958 123.842 132.207 123.842 129.035C123.842 124.828 122.548 121.527 119.959 119.132C117.434 116.738 113.357 114.537 107.726 112.53L82.8714 102.628C73.1627 98.8088 65.7193 94.3751 60.5414 89.3266C55.3634 84.2781 52.7744 77.3202 52.7744 68.4529C52.7744 58.2264 56.8197 49.9416 64.9103 43.5986C73.0009 37.2555 84.2953 34.084 98.7937 34.084C112.904 34.084 123.81 37.385 131.512 43.9869C138.933 50.2858 143.26 58.9883 144.492 70.0944C144.568 70.7763 144.028 71.3655 143.342 71.3655H123.082C122.512 71.3655 122.028 70.9528 121.91 70.3949C120.949 65.8623 118.745 62.2052 115.298 59.4238C111.609 56.3817 106.108 54.8607 98.7937 54.8607C92.3212 54.8607 87.2079 56.2199 83.4539 58.9383C79.6999 61.592 77.8229 64.9577 77.8229 69.0354C77.8229 72.5305 78.9879 75.3137 81.318 77.3849C83.7128 79.3913 87.4021 81.3331 92.3859 83.2101L119.959 93.8897C129.279 97.5143 136.431 102.077 141.415 107.579C146.399 113.081 148.891 119.974 148.891 128.259C148.891 135.831 146.981 142.401 143.162 147.967C139.344 153.469 133.777 157.741 126.464 160.783C119.15 163.825 110.25 165.346 99.7646 165.346Z" fill="white"/>
</g>
<defs>
<linearGradient id="paint0_linear_362_2258" x1="74.5953" y1="-10.0304" x2="119.586" y2="209.471" gradientUnits="userSpaceOnUse">
<stop stop-color="#52C8FF"/>
<stop offset="0.899038" stop-color="#005CD5"/>
</linearGradient>
<linearGradient id="paint1_linear_362_2258" x1="99.9402" y1="0.440231" x2="99.9402" y2="199.44" gradientUnits="userSpaceOnUse">
<stop stop-color="#52C8FF"/>
<stop offset="1" stop-color="#005CD5"/>
</linearGradient>
<clipPath id="clip0_362_2258">
<rect width="199.44" height="199.44" rx="29" fill="white"/>
</clipPath>
</defs>
</svg>
