<svg width="200" height="200" viewBox="0 0 200 200" fill="none" xmlns="http://www.w3.org/2000/svg">
<rect width="199.44" height="199.44" transform="translate(0.559814 0.559769)" fill="url(#paint0_linear_202_2254)"/>
<rect x="1" y="1" width="199" height="199" fill="url(#paint1_linear_202_2254)"/>
<path d="M100.324 165.906C91.5865 165.906 83.5283 164.385 76.1497 161.342C68.8358 158.3 62.8811 153.673 58.2856 147.459C53.9469 141.509 51.5372 134.015 51.0566 124.978C51.0215 124.318 51.552 123.77 52.2129 123.77H72.3597C73.0051 123.77 73.5255 124.294 73.5522 124.939C73.7313 129.267 74.9208 132.858 77.1205 135.711C79.5154 138.818 82.7192 141.148 86.7322 142.702C90.8098 144.19 95.2758 144.935 100.13 144.935C104.79 144.935 108.933 144.32 112.557 143.09C116.247 141.86 119.127 140.113 121.198 137.847C123.334 135.517 124.402 132.767 124.402 129.595C124.402 125.388 123.107 122.087 120.518 119.692C117.994 117.297 113.917 115.097 108.286 113.09L83.4312 103.187C73.7225 99.3685 66.2791 94.9349 61.1012 89.8864C55.9232 84.8378 53.3342 77.8799 53.3342 69.0126C53.3342 58.7861 57.3795 50.5014 65.4701 44.1583C73.5607 37.8153 84.8551 34.6438 99.3535 34.6438C113.463 34.6438 124.37 37.9448 132.072 44.5467C139.493 50.8456 143.82 59.5481 145.052 70.6542C145.128 71.336 144.588 71.9253 143.902 71.9253H123.642C123.072 71.9253 122.588 71.5126 122.47 70.9547C121.509 66.422 119.305 62.765 115.858 59.9835C112.169 56.9415 106.667 55.4204 99.3535 55.4204C92.881 55.4204 87.7678 56.7797 84.0137 59.4981C80.2597 62.1518 78.3827 65.5175 78.3827 69.5952C78.3827 73.0903 79.5477 75.8735 81.8778 77.9447C84.2726 79.9511 87.9619 81.8929 92.9457 83.7699L120.518 94.4495C129.839 98.074 136.991 102.637 141.975 108.139C146.959 113.64 149.45 120.534 149.45 128.818C149.45 136.391 147.541 142.961 143.722 148.527C139.904 154.029 134.337 158.3 127.023 161.342C119.709 164.385 110.81 165.906 100.324 165.906Z" fill="white"/>
<defs>
<linearGradient id="paint0_linear_202_2254" x1="74.5953" y1="-10.0304" x2="119.586" y2="209.471" gradientUnits="userSpaceOnUse">
<stop stop-color="#52C8FF"/>
<stop offset="0.899038" stop-color="#005CD5"/>
</linearGradient>
<linearGradient id="paint1_linear_202_2254" x1="100.5" y1="1" x2="100.5" y2="200" gradientUnits="userSpaceOnUse">
<stop stop-color="#52C8FF"/>
<stop offset="1" stop-color="#005CD5"/>
</linearGradient>
</defs>
</svg>
